<svg xmlns="http://www.w3.org/2000/svg" width="1200" height="360" viewBox="0 0 1200 360" role="img" aria-labelledby="title desc">
  <title id="title">tllib-specs — specifications for the Tradition Learning library</title>
  <desc id="desc">A visual overview from Tradition Learning scientific theory through contracts, intermediate representations, algorithms, and acceptance oracles to language-neutral handoff packages for tllib.</desc>
  <defs>
    <linearGradient id="bg" x1="0" y1="0" x2="1" y2="1">
      <stop offset="0" stop-color="#0f172a"/>
      <stop offset="0.55" stop-color="#172554"/>
      <stop offset="1" stop-color="#1d4ed8"/>
    </linearGradient>
    <linearGradient id="accent" x1="0" y1="0" x2="1" y2="0">
      <stop offset="0" stop-color="#38bdf8"/>
      <stop offset="1" stop-color="#a78bfa"/>
    </linearGradient>
    <filter id="shadow" x="-20%" y="-20%" width="140%" height="140%">
      <feDropShadow dx="0" dy="8" stdDeviation="10" flood-color="#020617" flood-opacity="0.28"/>
    </filter>
  </defs>

  <rect width="1200" height="360" rx="28" fill="url(#bg)"/>
  <circle cx="1080" cy="65" r="150" fill="#38bdf8" opacity="0.08"/>
  <circle cx="110" cy="330" r="180" fill="#a78bfa" opacity="0.08"/>

  <g transform="translate(72 52)">
    <text x="0" y="48" fill="#f8fafc" font-family="Inter,Segoe UI,Arial,sans-serif" font-size="52" font-weight="700">tllib-specs</text>
    <rect x="0" y="68" width="520" height="6" rx="3" fill="url(#accent)"/>
    <text x="0" y="112" fill="#cbd5e1" font-family="Inter,Segoe UI,Arial,sans-serif" font-size="23">Specifications for the Tradition Learning library</text>
    <text x="0" y="146" fill="#94a3b8" font-family="Inter,Segoe UI,Arial,sans-serif" font-size="18">36 theory domains · 694 feature packages · 8 shared contracts</text>
    <text x="0" y="176" fill="#7dd3fc" font-family="Inter,Segoe UI,Arial,sans-serif" font-size="16">Prepared by the Tradition Learning Community · Language-neutral handoff v1.0</text>
  </g>

  <g transform="translate(70 246)" filter="url(#shadow)" font-family="Inter,Segoe UI,Arial,sans-serif" font-size="15" font-weight="600">
    <g>
      <rect width="150" height="64" rx="14" fill="#f8fafc"/>
      <text x="75" y="28" text-anchor="middle" fill="#0f172a">Tradition Learning</text>
      <text x="75" y="48" text-anchor="middle" fill="#475569">theory</text>
    </g>
    <path d="M160 32h42" stroke="#7dd3fc" stroke-width="4" stroke-linecap="round"/>
    <path d="M196 25l10 7-10 7" fill="none" stroke="#7dd3fc" stroke-width="4" stroke-linecap="round" stroke-linejoin="round"/>

    <g transform="translate(215)">
      <rect width="150" height="64" rx="14" fill="#f8fafc"/>
      <text x="75" y="28" text-anchor="middle" fill="#0f172a">Contracts</text>
      <text x="75" y="48" text-anchor="middle" fill="#475569">+ source IR</text>
    </g>
    <path d="M375 32h42" stroke="#7dd3fc" stroke-width="4" stroke-linecap="round"/>
    <path d="M411 25l10 7-10 7" fill="none" stroke="#7dd3fc" stroke-width="4" stroke-linecap="round" stroke-linejoin="round"/>

    <g transform="translate(430)">
      <rect width="150" height="64" rx="14" fill="#f8fafc"/>
      <text x="75" y="28" text-anchor="middle" fill="#0f172a">Finalized IR</text>
      <text x="75" y="48" text-anchor="middle" fill="#475569">+ algorithms</text>
    </g>
    <path d="M590 32h42" stroke="#c4b5fd" stroke-width="4" stroke-linecap="round"/>
    <path d="M626 25l10 7-10 7" fill="none" stroke="#c4b5fd" stroke-width="4" stroke-linecap="round" stroke-linejoin="round"/>

    <g transform="translate(645)">
      <rect width="150" height="64" rx="14" fill="#f8fafc"/>
      <text x="75" y="28" text-anchor="middle" fill="#0f172a">Oracles</text>
      <text x="75" y="48" text-anchor="middle" fill="#475569">+ acceptance</text>
    </g>
    <path d="M805 32h42" stroke="#c4b5fd" stroke-width="4" stroke-linecap="round"/>
    <path d="M841 25l10 7-10 7" fill="none" stroke="#c4b5fd" stroke-width="4" stroke-linecap="round" stroke-linejoin="round"/>

    <g transform="translate(860)">
      <rect width="200" height="64" rx="14" fill="#e0f2fe"/>
      <text x="100" y="28" text-anchor="middle" fill="#0c4a6e">tllib handoff</text>
      <text x="100" y="48" text-anchor="middle" fill="#0369a1">694 packages</text>
    </g>
  </g>
</svg>
